<svg width="24" height="24" viewBox="0 0 24 24" fill="none" xmlns="http://www.w3.org/2000/svg">
<circle cx="12" cy="12" r="12" fill="#EF483E"/>
<path d="M7.64669 11.104H9.82269C9.82269 10.8053 9.84935 10.5067 9.90269 10.208C9.96669 9.89867 10.068 9.62133 10.2067 9.376C10.3454 9.12 10.5267 8.91733 10.7507 8.768C10.9854 8.608 11.268 8.528 11.5987 8.528C12.0894 8.528 12.4894 8.68267 12.7987 8.992C13.1187 9.29067 13.2787 9.712 13.2787 10.256C13.2787 10.5973 13.1987 10.9013 13.0387 11.168C12.8894 11.4347 12.6974 11.6747 12.4627 11.888C12.2387 12.1013 11.988 12.2987 11.7107 12.48C11.4334 12.6507 11.172 12.8213 10.9267 12.992C10.4467 13.3227 9.98802 13.648 9.55069 13.968C9.12402 14.288 8.75069 14.64 8.43069 15.024C8.11069 15.3973 7.85469 15.824 7.66269 16.304C7.48135 16.784 7.39069 17.3493 7.39069 18H15.6147V16.048H10.3187C10.596 15.664 10.916 15.328 11.2787 15.04C11.6414 14.752 12.0147 14.4853 12.3987 14.24C12.7827 13.984 13.1614 13.728 13.5347 13.472C13.9187 13.216 14.26 12.9333 14.5587 12.624C14.8574 12.304 15.0974 11.9413 15.2787 11.536C15.46 11.1307 15.5507 10.6453 15.5507 10.08C15.5507 9.536 15.444 9.04533 15.2307 8.608C15.028 8.17067 14.7507 7.80267 14.3987 7.504C14.0467 7.20533 13.636 6.976 13.1667 6.816C12.708 6.656 12.2227 6.576 11.7107 6.576C11.0387 6.576 10.4414 6.69333 9.91869 6.928C9.40669 7.152 8.98002 7.472 8.63869 7.888C8.29735 8.29333 8.04135 8.77333 7.87069 9.328C7.70002 9.872 7.62535 10.464 7.64669 11.104Z" fill="white"/>
</svg>
