<svg width="24" height="24" viewBox="0 0 24 24" fill="none" xmlns="http://www.w3.org/2000/svg">
<circle cx="12" cy="12" r="12" fill="#EF483E"/>
<path d="M10.7027 11.328V12.928C10.98 12.928 11.268 12.9387 11.5667 12.96C11.876 12.9707 12.1587 13.0293 12.4147 13.136C12.6707 13.232 12.8787 13.392 13.0387 13.616C13.2094 13.84 13.2947 14.1653 13.2947 14.592C13.2947 15.136 13.1187 15.568 12.7667 15.888C12.4147 16.1973 11.9827 16.352 11.4707 16.352C11.14 16.352 10.852 16.2933 10.6067 16.176C10.372 16.0587 10.1747 15.904 10.0147 15.712C9.85469 15.5093 9.73202 15.2747 9.64669 15.008C9.56135 14.7307 9.51335 14.4427 9.50269 14.144H7.34269C7.33202 14.7947 7.42269 15.3707 7.61469 15.872C7.81735 16.3733 8.10002 16.8 8.46269 17.152C8.82535 17.4933 9.26269 17.7547 9.77469 17.936C10.2974 18.1173 10.8734 18.208 11.5027 18.208C12.0467 18.208 12.5694 18.128 13.0707 17.968C13.572 17.808 14.0147 17.5733 14.3987 17.264C14.7827 16.9547 15.0867 16.5707 15.3107 16.112C15.5454 15.6533 15.6627 15.1307 15.6627 14.544C15.6627 13.904 15.4867 13.3547 15.1347 12.896C14.7827 12.4373 14.2974 12.1387 13.6787 12V11.968C14.2014 11.8187 14.5907 11.536 14.8467 11.12C15.1134 10.704 15.2467 10.224 15.2467 9.68C15.2467 9.17867 15.1347 8.736 14.9107 8.352C14.6867 7.968 14.3934 7.64267 14.0307 7.376C13.6787 7.10933 13.2787 6.912 12.8307 6.784C12.3827 6.64533 11.9347 6.576 11.4867 6.576C10.9107 6.576 10.388 6.672 9.91869 6.864C9.44935 7.04533 9.04402 7.30667 8.70269 7.648C8.37202 7.98933 8.11069 8.4 7.91869 8.88C7.73735 9.34933 7.63602 9.872 7.61469 10.448H9.77469C9.76402 9.872 9.90269 9.39733 10.1907 9.024C10.4894 8.64 10.9267 8.448 11.5027 8.448C11.9187 8.448 12.2867 8.576 12.6067 8.832C12.9267 9.088 13.0867 9.456 13.0867 9.936C13.0867 10.256 13.0067 10.512 12.8467 10.704C12.6974 10.896 12.5 11.0453 12.2547 11.152C12.02 11.248 11.764 11.3067 11.4867 11.328C11.2094 11.3493 10.948 11.3493 10.7027 11.328Z" fill="white"/>
</svg>
